<svg width="192" height="192" viewBox="0 0 120 120" fill="none" xmlns="http://www.w3.org/2000/svg">
  <!-- Background Circle with Gradient -->
  <defs>
    <linearGradient id="bgGradient" x1="0%" y1="0%" x2="100%" y2="100%">
      <stop offset="0%" style="stop-color:#0078D4;stop-opacity:1" />
      <stop offset="100%" style="stop-color:#106EBE;stop-opacity:1" />
    </linearGradient>
    <linearGradient id="barGradient1" x1="0%" y1="0%" x2="100%" y2="0%">
      <stop offset="0%" style="stop-color:#50E6FF;stop-opacity:1" />
      <stop offset="100%" style="stop-color:#0078D4;stop-opacity:1" />
    </linearGradient>
    <linearGradient id="barGradient2" x1="0%" y1="0%" x2="100%" y2="0%">
      <stop offset="0%" style="stop-color:#96D726;stop-opacity:1" />
      <stop offset="100%" style="stop-color:#00B294;stop-opacity:1" />
    </linearGradient>
    <linearGradient id="barGradient3" x1="0%" y1="0%" x2="100%" y2="0%">
      <stop offset="0%" style="stop-color:#FFB900;stop-opacity:1" />
      <stop offset="100%" style="stop-color:#F7630C;stop-opacity:1" />
    </linearGradient>
    <!-- Shadow filter -->
    <filter id="shadow" x="-50%" y="-50%" width="200%" height="200%">
      <feDropShadow dx="0" dy="2" stdDeviation="3" flood-opacity="0.3"/>
    </filter>
  </defs>
  
  <!-- Background Circle -->
  <circle cx="60" cy="60" r="58" fill="url(#bgGradient)" filter="url(#shadow)"/>
  
  <!-- White Inner Circle for contrast -->
  <circle cx="60" cy="60" r="50" fill="white" opacity="0.95"/>
  
  <!-- Gantt Chart Bars -->
  <!-- Bar 1 -->
  <rect x="25" y="30" width="45" height="8" rx="4" fill="url(#barGradient1)" opacity="0.9"/>
  <circle cx="28" cy="34" r="3" fill="#0078D4"/>
  
  <!-- Bar 2 -->
  <rect x="25" y="48" width="60" height="8" rx="4" fill="url(#barGradient2)" opacity="0.9"/>
  <circle cx="28" cy="52" r="3" fill="#00B294"/>
  
  <!-- Bar 3 -->
  <rect x="25" y="66" width="35" height="8" rx="4" fill="url(#barGradient3)" opacity="0.9"/>
  <circle cx="28" cy="70" r="3" fill="#F7630C"/>
  
  <!-- Timeline Grid Lines (vertical) -->
  <line x1="42" y1="26" x2="42" y2="78" stroke="#D1D1D1" stroke-width="1" opacity="0.5"/>
  <line x1="60" y1="26" x2="60" y2="78" stroke="#D1D1D1" stroke-width="1" opacity="0.5"/>
  <line x1="78" y1="26" x2="78" y2="78" stroke="#D1D1D1" stroke-width="1" opacity="0.5"/>
  
  <!-- Calendar/Project Icon in corner -->
  <rect x="75" y="80" width="20" height="18" rx="2" fill="#0078D4" opacity="0.8"/>
  <line x1="77" y1="84" x2="93" y2="84" stroke="white" stroke-width="1.5"/>
  <line x1="79" y1="89" x2="85" y2="89" stroke="white" stroke-width="1"/>
  <line x1="87" y1="89" x2="91" y2="89" stroke="white" stroke-width="1"/>
  <line x1="79" y1="93" x2="83" y2="93" stroke="white" stroke-width="1"/>
  <line x1="85" y1="93" x2="91" y2="93" stroke="white" stroke-width="1"/>
</svg>
